<svg xmlns="http://www.w3.org/2000/svg" viewBox="0 0 400 400">
  <defs>
    <linearGradient id="bg" x1="0%" y1="0%" x2="100%" y2="100%">
      <stop offset="0%" stop-color="#2D9C7F" stop-opacity="0.15" />
      <stop offset="100%" stop-color="#45B39D" stop-opacity="0.4" />
    </linearGradient>
    <linearGradient id="cart" x1="0%" y1="0%" x2="100%" y2="100%">
      <stop offset="0%" stop-color="#2D9C7F" />
      <stop offset="100%" stop-color="#1A7A5E" />
    </linearGradient>
  </defs>
  <rect width="400" height="400" fill="#ffffff" rx="30" />
  <circle cx="320" cy="80" r="60" fill="url(#bg)" />
  <circle cx="120" cy="120" r="90" fill="url(#bg)" opacity="0.8" />
  <rect x="70" y="160" width="260" height="150" rx="20" fill="#ffffff" stroke="#E9F3F0" stroke-width="4" />
  <rect x="110" y="200" width="180" height="20" rx="10" fill="#2D9C7F" opacity="0.4" />
  <rect x="110" y="230" width="150" height="20" rx="10" fill="#2D9C7F" opacity="0.2" />
  <g transform="translate(130, 190)">
    <path d="M20 40 L200 40 L185 110 H50 L40 70" fill="url(#cart)" opacity="0.15" />
    <path d="M40 30 H190 C193 30 196 33 195 37 L184 95 C183 99 179 102 175 102 H60 C56 102 52 99 51 95 L33 37 C32 33 35 30 39 30 Z" fill="url(#cart)" />
    <circle cx="75" cy="120" r="18" fill="#FFFFFF" stroke="#1A7A5E" stroke-width="6" />
    <circle cx="155" cy="120" r="18" fill="#FFFFFF" stroke="#1A7A5E" stroke-width="6" />
    <path d="M40 30 L30 0" stroke="#2D9C7F" stroke-width="12" stroke-linecap="round" />
    <path d="M200 30 L220 40" stroke="#2D9C7F" stroke-width="12" stroke-linecap="round" />
  </g>
  <circle cx="80" cy="300" r="12" fill="#2D9C7F" opacity="0.2" />
  <circle cx="320" cy="300" r="18" fill="#45B39D" opacity="0.2" />
  <circle cx="260" cy="120" r="8" fill="#2D9C7F" opacity="0.4" />
  <circle cx="170" cy="70" r="6" fill="#45B39D" opacity="0.4" />
  <text x="200" y="340" font-family="Inter, Arial, sans-serif" font-size="26" font-weight="600" fill="#2D9C7F" text-anchor="middle">Belanja Sembako Nyaman</text>
</svg>
